<mxfile host="Electron" agent="Mozilla/5.0 (X11; Linux x86_64) AppleWebKit/537.36 (KHTML, like Gecko) draw.io/28.1.2 Chrome/138.0.7204.251 Electron/37.5.1 Safari/537.36" version="28.1.2">
  <diagram name="Page-1" id="qKqHAEaOWNg46FQ1uYQX">
    <mxGraphModel dx="2276" dy="843" grid="1" gridSize="10" guides="1" tooltips="1" connect="1" arrows="1" fold="1" page="1" pageScale="1" pageWidth="850" pageHeight="1100" math="0" shadow="0">
      <root>
        <mxCell id="0" />
        <mxCell id="1" parent="0" />
        <mxCell id="wtYZmykJoVxVGQSk98CT-4" value="" style="edgeStyle=orthogonalEdgeStyle;rounded=0;orthogonalLoop=1;jettySize=auto;html=1;" edge="1" parent="1" source="wtYZmykJoVxVGQSk98CT-1" target="wtYZmykJoVxVGQSk98CT-3">
          <mxGeometry relative="1" as="geometry" />
        </mxCell>
        <mxCell id="wtYZmykJoVxVGQSk98CT-8" value="" style="edgeStyle=orthogonalEdgeStyle;rounded=0;orthogonalLoop=1;jettySize=auto;html=1;" edge="1" parent="1" source="wtYZmykJoVxVGQSk98CT-1" target="wtYZmykJoVxVGQSk98CT-7">
          <mxGeometry relative="1" as="geometry" />
        </mxCell>
        <mxCell id="wtYZmykJoVxVGQSk98CT-1" value="An IoT Smart Scale PoC for Smart Homes" style="rounded=0;whiteSpace=wrap;html=1;strokeColor=#FF0000;" vertex="1" parent="1">
          <mxGeometry x="350" y="290" width="120" height="60" as="geometry" />
        </mxCell>
        <mxCell id="wtYZmykJoVxVGQSk98CT-6" value="" style="edgeStyle=orthogonalEdgeStyle;rounded=0;orthogonalLoop=1;jettySize=auto;html=1;" edge="1" parent="1" source="wtYZmykJoVxVGQSk98CT-3" target="wtYZmykJoVxVGQSk98CT-5">
          <mxGeometry relative="1" as="geometry" />
        </mxCell>
        <mxCell id="wtYZmykJoVxVGQSk98CT-24" value="" style="edgeStyle=orthogonalEdgeStyle;rounded=0;orthogonalLoop=1;jettySize=auto;html=1;" edge="1" parent="1" source="wtYZmykJoVxVGQSk98CT-3" target="wtYZmykJoVxVGQSk98CT-23">
          <mxGeometry relative="1" as="geometry" />
        </mxCell>
        <mxCell id="wtYZmykJoVxVGQSk98CT-36" value="" style="edgeStyle=orthogonalEdgeStyle;rounded=0;orthogonalLoop=1;jettySize=auto;html=1;" edge="1" parent="1" source="wtYZmykJoVxVGQSk98CT-3" target="wtYZmykJoVxVGQSk98CT-35">
          <mxGeometry relative="1" as="geometry" />
        </mxCell>
        <mxCell id="wtYZmykJoVxVGQSk98CT-37" style="edgeStyle=orthogonalEdgeStyle;rounded=0;orthogonalLoop=1;jettySize=auto;html=1;exitX=0.25;exitY=1;exitDx=0;exitDy=0;entryX=0;entryY=0.5;entryDx=0;entryDy=0;" edge="1" parent="1" source="wtYZmykJoVxVGQSk98CT-3" target="wtYZmykJoVxVGQSk98CT-38">
          <mxGeometry relative="1" as="geometry">
            <mxPoint x="130" y="530" as="targetPoint" />
            <Array as="points">
              <mxPoint x="160" y="350" />
              <mxPoint x="160" y="435" />
              <mxPoint x="140" y="435" />
              <mxPoint x="140" y="550" />
            </Array>
          </mxGeometry>
        </mxCell>
        <mxCell id="wtYZmykJoVxVGQSk98CT-3" value="Implementation" style="rounded=0;whiteSpace=wrap;html=1;" vertex="1" parent="1">
          <mxGeometry x="150" y="290" width="120" height="60" as="geometry" />
        </mxCell>
        <mxCell id="wtYZmykJoVxVGQSk98CT-32" value="" style="edgeStyle=orthogonalEdgeStyle;rounded=0;orthogonalLoop=1;jettySize=auto;html=1;" edge="1" parent="1" source="wtYZmykJoVxVGQSk98CT-5" target="wtYZmykJoVxVGQSk98CT-31">
          <mxGeometry relative="1" as="geometry" />
        </mxCell>
        <mxCell id="wtYZmykJoVxVGQSk98CT-34" value="" style="edgeStyle=orthogonalEdgeStyle;rounded=0;orthogonalLoop=1;jettySize=auto;html=1;" edge="1" parent="1" source="wtYZmykJoVxVGQSk98CT-5" target="wtYZmykJoVxVGQSk98CT-33">
          <mxGeometry relative="1" as="geometry" />
        </mxCell>
        <mxCell id="wtYZmykJoVxVGQSk98CT-5" value="Architecture" style="rounded=0;whiteSpace=wrap;html=1;" vertex="1" parent="1">
          <mxGeometry x="-50" y="290" width="120" height="60" as="geometry" />
        </mxCell>
        <mxCell id="wtYZmykJoVxVGQSk98CT-10" value="" style="edgeStyle=orthogonalEdgeStyle;rounded=0;orthogonalLoop=1;jettySize=auto;html=1;" edge="1" parent="1" source="wtYZmykJoVxVGQSk98CT-7" target="wtYZmykJoVxVGQSk98CT-9">
          <mxGeometry relative="1" as="geometry" />
        </mxCell>
        <mxCell id="wtYZmykJoVxVGQSk98CT-12" value="" style="edgeStyle=orthogonalEdgeStyle;rounded=0;orthogonalLoop=1;jettySize=auto;html=1;" edge="1" parent="1" source="wtYZmykJoVxVGQSk98CT-7" target="wtYZmykJoVxVGQSk98CT-11">
          <mxGeometry relative="1" as="geometry" />
        </mxCell>
        <mxCell id="wtYZmykJoVxVGQSk98CT-7" value="Concepts" style="rounded=0;whiteSpace=wrap;html=1;" vertex="1" parent="1">
          <mxGeometry x="550" y="290" width="120" height="60" as="geometry" />
        </mxCell>
        <mxCell id="wtYZmykJoVxVGQSk98CT-14" value="" style="edgeStyle=orthogonalEdgeStyle;rounded=0;orthogonalLoop=1;jettySize=auto;html=1;" edge="1" parent="1" source="wtYZmykJoVxVGQSk98CT-9" target="wtYZmykJoVxVGQSk98CT-13">
          <mxGeometry relative="1" as="geometry" />
        </mxCell>
        <mxCell id="wtYZmykJoVxVGQSk98CT-17" value="" style="edgeStyle=orthogonalEdgeStyle;rounded=0;orthogonalLoop=1;jettySize=auto;html=1;" edge="1" parent="1" source="wtYZmykJoVxVGQSk98CT-9" target="wtYZmykJoVxVGQSk98CT-13">
          <mxGeometry relative="1" as="geometry" />
        </mxCell>
        <mxCell id="wtYZmykJoVxVGQSk98CT-20" value="" style="edgeStyle=orthogonalEdgeStyle;rounded=0;orthogonalLoop=1;jettySize=auto;html=1;exitX=1;exitY=0.5;exitDx=0;exitDy=0;entryX=0;entryY=0.5;entryDx=0;entryDy=0;" edge="1" parent="1" source="wtYZmykJoVxVGQSk98CT-7" target="wtYZmykJoVxVGQSk98CT-19">
          <mxGeometry relative="1" as="geometry" />
        </mxCell>
        <mxCell id="wtYZmykJoVxVGQSk98CT-22" value="" style="edgeStyle=orthogonalEdgeStyle;rounded=0;orthogonalLoop=1;jettySize=auto;html=1;" edge="1" parent="1" source="wtYZmykJoVxVGQSk98CT-9" target="wtYZmykJoVxVGQSk98CT-21">
          <mxGeometry relative="1" as="geometry" />
        </mxCell>
        <mxCell id="wtYZmykJoVxVGQSk98CT-9" value="IoT" style="whiteSpace=wrap;html=1;rounded=0;" vertex="1" parent="1">
          <mxGeometry x="550" y="150" width="120" height="60" as="geometry" />
        </mxCell>
        <mxCell id="wtYZmykJoVxVGQSk98CT-11" value="Privacy" style="whiteSpace=wrap;html=1;rounded=0;" vertex="1" parent="1">
          <mxGeometry x="550" y="430" width="120" height="60" as="geometry" />
        </mxCell>
        <mxCell id="wtYZmykJoVxVGQSk98CT-13" value="IoMT" style="whiteSpace=wrap;html=1;rounded=0;" vertex="1" parent="1">
          <mxGeometry x="460" y="20" width="120" height="60" as="geometry" />
        </mxCell>
        <mxCell id="wtYZmykJoVxVGQSk98CT-19" value="Smart Home" style="whiteSpace=wrap;html=1;rounded=0;" vertex="1" parent="1">
          <mxGeometry x="760" y="290" width="120" height="60" as="geometry" />
        </mxCell>
        <mxCell id="wtYZmykJoVxVGQSk98CT-21" value="Agro" style="whiteSpace=wrap;html=1;rounded=0;" vertex="1" parent="1">
          <mxGeometry x="320" y="20" width="120" height="60" as="geometry" />
        </mxCell>
        <mxCell id="wtYZmykJoVxVGQSk98CT-26" value="" style="edgeStyle=orthogonalEdgeStyle;rounded=0;orthogonalLoop=1;jettySize=auto;html=1;" edge="1" parent="1" source="wtYZmykJoVxVGQSk98CT-23" target="wtYZmykJoVxVGQSk98CT-25">
          <mxGeometry relative="1" as="geometry" />
        </mxCell>
        <mxCell id="wtYZmykJoVxVGQSk98CT-30" value="" style="edgeStyle=orthogonalEdgeStyle;rounded=0;orthogonalLoop=1;jettySize=auto;html=1;" edge="1" parent="1" source="wtYZmykJoVxVGQSk98CT-23" target="wtYZmykJoVxVGQSk98CT-29">
          <mxGeometry relative="1" as="geometry" />
        </mxCell>
        <mxCell id="wtYZmykJoVxVGQSk98CT-23" value="Infrastructure" style="whiteSpace=wrap;html=1;rounded=0;" vertex="1" parent="1">
          <mxGeometry x="150" y="150" width="120" height="60" as="geometry" />
        </mxCell>
        <mxCell id="wtYZmykJoVxVGQSk98CT-28" value="" style="edgeStyle=orthogonalEdgeStyle;rounded=0;orthogonalLoop=1;jettySize=auto;html=1;" edge="1" parent="1" source="wtYZmykJoVxVGQSk98CT-25" target="wtYZmykJoVxVGQSk98CT-27">
          <mxGeometry relative="1" as="geometry" />
        </mxCell>
        <mxCell id="wtYZmykJoVxVGQSk98CT-25" value="ESP32" style="whiteSpace=wrap;html=1;rounded=0;" vertex="1" parent="1">
          <mxGeometry x="150" y="10" width="120" height="60" as="geometry" />
        </mxCell>
        <mxCell id="wtYZmykJoVxVGQSk98CT-27" value="Sensors" style="whiteSpace=wrap;html=1;rounded=0;" vertex="1" parent="1">
          <mxGeometry x="-50" y="10" width="120" height="60" as="geometry" />
        </mxCell>
        <mxCell id="wtYZmykJoVxVGQSk98CT-29" value="Raspberry Pi / Hub" style="whiteSpace=wrap;html=1;rounded=0;" vertex="1" parent="1">
          <mxGeometry x="-50" y="150" width="120" height="60" as="geometry" />
        </mxCell>
        <mxCell id="wtYZmykJoVxVGQSk98CT-31" value="DDD" style="whiteSpace=wrap;html=1;rounded=0;" vertex="1" parent="1">
          <mxGeometry x="-50" y="430" width="120" height="60" as="geometry" />
        </mxCell>
        <mxCell id="wtYZmykJoVxVGQSk98CT-33" value="Event Driven" style="whiteSpace=wrap;html=1;rounded=0;" vertex="1" parent="1">
          <mxGeometry x="-250" y="290" width="120" height="60" as="geometry" />
        </mxCell>
        <mxCell id="wtYZmykJoVxVGQSk98CT-42" value="" style="edgeStyle=orthogonalEdgeStyle;rounded=0;orthogonalLoop=1;jettySize=auto;html=1;exitX=0.75;exitY=1;exitDx=0;exitDy=0;" edge="1" parent="1" source="wtYZmykJoVxVGQSk98CT-3" target="wtYZmykJoVxVGQSk98CT-41">
          <mxGeometry relative="1" as="geometry" />
        </mxCell>
        <mxCell id="wtYZmykJoVxVGQSk98CT-35" value="Weight Measurement" style="whiteSpace=wrap;html=1;rounded=0;" vertex="1" parent="1">
          <mxGeometry x="180" y="430" width="120" height="60" as="geometry" />
        </mxCell>
        <mxCell id="wtYZmykJoVxVGQSk98CT-40" value="" style="edgeStyle=orthogonalEdgeStyle;rounded=0;orthogonalLoop=1;jettySize=auto;html=1;" edge="1" parent="1" source="wtYZmykJoVxVGQSk98CT-38" target="wtYZmykJoVxVGQSk98CT-39">
          <mxGeometry relative="1" as="geometry" />
        </mxCell>
        <mxCell id="wtYZmykJoVxVGQSk98CT-44" value="" style="edgeStyle=orthogonalEdgeStyle;rounded=0;orthogonalLoop=1;jettySize=auto;html=1;" edge="1" parent="1" source="wtYZmykJoVxVGQSk98CT-38" target="wtYZmykJoVxVGQSk98CT-43">
          <mxGeometry relative="1" as="geometry" />
        </mxCell>
        <mxCell id="wtYZmykJoVxVGQSk98CT-38" value="Face Recognition" style="whiteSpace=wrap;html=1;rounded=0;" vertex="1" parent="1">
          <mxGeometry x="160" y="520" width="120" height="60" as="geometry" />
        </mxCell>
        <mxCell id="wtYZmykJoVxVGQSk98CT-39" value="Methods" style="whiteSpace=wrap;html=1;rounded=0;" vertex="1" parent="1">
          <mxGeometry x="360" y="520" width="120" height="60" as="geometry" />
        </mxCell>
        <mxCell id="wtYZmykJoVxVGQSk98CT-41" value="Data Serialization" style="whiteSpace=wrap;html=1;rounded=0;" vertex="1" parent="1">
          <mxGeometry x="350" y="430" width="120" height="60" as="geometry" />
        </mxCell>
        <mxCell id="wtYZmykJoVxVGQSk98CT-43" value="Image embedding extraction" style="whiteSpace=wrap;html=1;rounded=0;" vertex="1" parent="1">
          <mxGeometry x="160" y="660" width="120" height="60" as="geometry" />
        </mxCell>
        <mxCell id="wtYZmykJoVxVGQSk98CT-45" value="Paper structure based on content mind map&lt;br&gt;&lt;br&gt;Introduction&lt;div&gt;&lt;span style=&quot;white-space: pre;&quot;&gt;&#x9;&lt;/span&gt;Contextualização de state of the art&lt;br&gt;&lt;/div&gt;&lt;div&gt;&lt;span style=&quot;white-space: pre;&quot;&gt;&#x9;&lt;/span&gt;Contextualização teórica de conceitos&lt;br&gt;&lt;/div&gt;&lt;div&gt;&lt;span style=&quot;white-space: pre;&quot;&gt;&#x9;&lt;/span&gt;Contextualização teórica de conceitos de implementação&lt;br&gt;&lt;/div&gt;&lt;div&gt;&lt;span style=&quot;white-space: pre;&quot;&gt;&#x9;&lt;/span&gt;&lt;span style=&quot;white-space: pre;&quot;&gt;&#x9;&lt;/span&gt;Requisitos funcionais e nao funcionais&lt;br&gt;&lt;span style=&quot;white-space: pre;&quot;&gt;&#x9;&lt;/span&gt;&lt;span style=&quot;white-space: pre;&quot;&gt;&#x9;&lt;/span&gt;Stack&lt;br&gt;&lt;/div&gt;&lt;div&gt;&lt;span style=&quot;white-space: pre;&quot;&gt;&#x9;&lt;/span&gt;Objetivos&lt;br&gt;&lt;/div&gt;&lt;div&gt;Metodologia&lt;/div&gt;&lt;div&gt;&lt;span style=&quot;white-space: pre;&quot;&gt;&#x9;&lt;/span&gt;Descrição da construção do protótipo&lt;br&gt;&lt;/div&gt;&lt;div&gt;&lt;span style=&quot;white-space: pre;&quot;&gt;&#x9;&lt;/span&gt;&lt;span style=&quot;white-space: pre;&quot;&gt;&#x9;&lt;/span&gt;Stack&lt;br&gt;&lt;/div&gt;&lt;div&gt;&lt;span style=&quot;white-space: pre;&quot;&gt;&#x9;&lt;/span&gt;Etapas de construção do projeto&lt;br&gt;&lt;/div&gt;&lt;div&gt;&lt;span style=&quot;white-space: pre;&quot;&gt;&#x9;&lt;/span&gt;Testes e demonstrações&lt;br&gt;&lt;/div&gt;&lt;div&gt;Resultados&lt;/div&gt;&lt;div&gt;Discussao e future work&lt;/div&gt;&lt;div&gt;&lt;span style=&quot;white-space: pre;&quot;&gt;&#x9;&lt;/span&gt;Desafios&lt;/div&gt;&lt;div&gt;&lt;span style=&quot;white-space: pre;&quot;&gt;&#x9;&lt;/span&gt;Agro&lt;/div&gt;&lt;div&gt;&lt;span style=&quot;white-space: pre;&quot;&gt;&#x9;&lt;/span&gt;IoMT&lt;/div&gt;&lt;div&gt;Conclusao&lt;/div&gt;&lt;div&gt;Referencias&lt;/div&gt;&lt;div&gt;Apendice&lt;/div&gt;&lt;div&gt;&lt;span style=&quot;white-space: pre;&quot;&gt;&#x9;&lt;/span&gt;Codigos e talz&lt;br&gt;&lt;/div&gt;" style="text;html=1;align=left;verticalAlign=top;whiteSpace=wrap;rounded=0;fontSize=20;" vertex="1" parent="1">
          <mxGeometry x="-640" y="550" width="610" height="590" as="geometry" />
        </mxCell>
      </root>
    </mxGraphModel>
  </diagram>
</mxfile>
